<?xml version="1.0" standalone="no"?>
<!DOCTYPE svg PUBLIC "-//W3C//DTD SVG 20010904//EN"
 "http://www.w3.org/TR/2001/REC-SVG-20010904/DTD/svg10.dtd">
<svg version="1.0" xmlns="http://www.w3.org/2000/svg"
 width="512.000000pt" height="512.000000pt" viewBox="0 0 512.000000 512.000000"
 preserveAspectRatio="xMidYMid meet">
<metadata>
Created by potrace 1.14, written by Peter Selinger 2001-2017
</metadata>
<g transform="translate(0.000000,512.000000) scale(0.100000,-0.100000)"
fill="#000000" stroke="none">
<path d="M0 2560 l0 -2560 2560 0 2560 0 0 2560 0 2560 -2560 0 -2560 0 0
-2560z m2270 940 l0 -1420 -1035 0 -1035 0 0 1420 0 1420 1035 0 1035 0 0
-1420z m2650 515 l0 -905 -1225 0 -1225 0 0 905 0 905 1225 0 1225 0 0 -905z
m0 -1815 l0 -710 -1225 0 -1225 0 0 710 0 710 1225 0 1225 0 0 -710z m-2650
-1160 l0 -840 -1030 0 -1030 0 0 840 0 840 1030 0 1030 0 0 -840z m1290 -295
l0 -545 -545 0 -545 0 0 545 0 545 545 0 545 0 0 -545z m800 0 l0 -545 -300 0
-300 0 0 545 0 545 300 0 300 0 0 -545z m560 0 l0 -545 -180 0 -180 0 0 545 0
545 180 0 180 0 0 -545z"/>
</g>
</svg>
